<?xml version="1.0" encoding="UTF-8"?>
<svg id="Layer_2" data-name="Layer 2" xmlns="http://www.w3.org/2000/svg" viewBox="0 0 564.94 211.51">
  <defs>
    <style>
      .cls-1 {
        fill: #c4c4c4;
        stroke-width: 0px;
      }
    </style>
  </defs>
  <g id="Layer_1-2" data-name="Layer 1">
    <path class="cls-1" d="m2.83,87.62c1.61-7.29,10.99-22.49,24-25,13.49-2.6,19.3,10.04,37,11,16.71.9,17.74-10.03,41-16,23.22-5.96,29.67,3.03,57-3,14.03-3.09,16.07-6.29,30-11,34.97-11.83,44.15.83,75-6,45.33-10.03,62.61-45.56,85-36,6.72,2.87,17.48,11.33,29,8,3.22-.93,6.34-2.73,12-3,6.71-.32,11.29,1.8,15,3,11.51,3.73,20.33.54,28,0,16.26-1.15,30.02,9.41,47,22,73.34,54.36,83.33,54.54,82,61C545.61,186.04-45.68,307.73,2.83,87.62Z"/>
  </g>
</svg>