<?xml version="1.0" encoding="UTF-8"?>
<svg id="Layer_2" data-name="Layer 2" xmlns="http://www.w3.org/2000/svg" viewBox="0 0 359.25 150.42">
  <defs>
    <style>
      .cls-1 {
        fill: #666;
        stroke-width: 0px;
      }
    </style>
  </defs>
  <g id="Layer_1-2" data-name="Layer 1">
    <path class="cls-1" d="m.13,140.09c-2.5-10.08,31.25-16.79,64-53,14.37-15.89,17.26-24.97,32-34,5.09-3.12,14.12-7.78,22-18,1.32-1.71,3.54-5.14,8-12,8.76-13.49,11.89-19.29,16-19,2.62.19,2.56,2.63,7,4,.72.22,6.48,1.91,11-1,4.01-2.58,3.23-6.32,6-7,3.88-.96,6.35,6.14,12,6,3.74-.09,4.17-3.24,8-3,4.53.28,9,5,9,5h0s14.47,9.64,27,23c7.55,8.05,6.28,8.81,12,14,9.6,8.72,19.01,11.9,24,14,25.84,10.87,23.12,30.65,47,44,26,14.53,51.99,3.81,54,11,1.75,6.27-16.81,18.74-37,27-65.09,26.62-91.29-13.36-175-2-26.84,3.64-63.16,13.05-117,10-11.47-.65-28.3-2.12-30-9Z"/>
  </g>
</svg>