<?xml version="1.0" encoding="UTF-8"?>
<svg id="Layer_2" data-name="Layer 2" xmlns="http://www.w3.org/2000/svg" viewBox="0 0 92.02 183.13">
  <defs>
    <style>
      .cls-1 {
        fill: #00890a;
        stroke-width: 0px;
      }

      .cls-2 {
        fill: none;
        stroke: #036000;
        stroke-miterlimit: 10;
      }
    </style>
  </defs>
  <g id="Layer_1-2" data-name="Layer 1">
    <g id="Planze1">
      <path class="cls-2" d="m9.47,8.98c36.14,52.47,60.03,110.68,69.43,174.08"/>
      <path class="cls-1" d="m60,112.04c-3-8,31-21,32-19s-29,27-32,19Z"/>
      <path class="cls-1" d="m61.11,112.86c-1.08,8.48-37.22,4.1-37.17,1.87s38.25-10.34,37.17-1.87Z"/>
      <path class="cls-1" d="m55.99,101.06c-2.81-7.92,29.05-20.79,29.99-18.81s-27.18,26.73-29.99,18.81Z"/>
      <path class="cls-1" d="m57.18,101.7c-1.27,8.31-35.43,4.56-35.32,2.37s36.59-10.68,35.32-2.37Z"/>
      <path class="cls-1" d="m51.98,88.06c-2.72-7.92,28.09-20.79,29-18.81s-26.28,26.73-29,18.81Z"/>
      <path class="cls-1" d="m53.17,89.52c-.89,8.33-34.25,6.96-34.23,4.78s35.12-13.11,34.23-4.78Z"/>
      <path class="cls-1" d="m46.35,76.65c-3.04-7.8,27.21-21.93,28.2-19.99s-25.15,27.79-28.2,19.99Z"/>
      <path class="cls-1" d="m48.08,77.83c-.54,8.36-33.93,8.38-34,6.2s34.54-14.56,34-6.2Z"/>
      <path class="cls-1" d="m41.33,65.75c-2.59-7.28,22.82-20.33,23.66-18.52s-21.07,25.8-23.66,18.52Z"/>
      <path class="cls-1" d="m42.67,66.78c-1.52,7.58-30.02,5.72-29.81,3.74s31.33-11.31,29.81-3.74Z"/>
      <path class="cls-1" d="m35,54.04c-5-7,16-19,18-17s-13,24-18,17Z"/>
      <path class="cls-1" d="m29.87,44.13c-4.16-6.54,13.31-17.75,14.98-15.88s-10.82,22.42-14.98,15.88Z"/>
      <path class="cls-1" d="m32.43,43.71c-1.01,7.68-21.61,5.05-21.68,2.55s22.69-10.24,21.68-2.55Z"/>
      <path class="cls-1" d="m37.05,52.94c1.33,8.5-22.82,9.8-23.71,7.12s22.39-15.62,23.71-7.12Z"/>
      <path class="cls-1" d="m24,32.04c-5-6,4.92-14.12,7.46-13.56s-2.46,19.56-7.46,13.56Z"/>
      <path class="cls-1" d="m24.44,32.68c-2.73,7.32-14.69,2.74-15.47.26s18.2-7.58,15.47-.26Z"/>
      <path class="cls-1" d="m19,11.04c3,0,4,10-1,10s-2-10,1-10Z"/>
      <path class="cls-1" d="m7.41,20.46c0-3,10-4,10,1s-10,2-10-1Z"/>
      <path class="cls-1" d="m0,.04c3,1,15,8,11,12S1-.96,0,.04Z"/>
    </g>
  </g>
</svg>