<?xml version="1.0" encoding="UTF-8"?>
<svg id="Layer_2" data-name="Layer 2" xmlns="http://www.w3.org/2000/svg" viewBox="0 0 187.42 238.51">
  <defs>
    <style>
      .cls-1 {
        fill: #595959;
        stroke-width: 0px;
      }
    </style>
  </defs>
  <g id="Layer_1-2" data-name="Layer 1">
    <g id="Fels_links" data-name="Fels links">
      <path class="cls-1" d="m0,0s7.88,7.66,23.38,3.16c7-2,24.5,13.5,29,14s12.5-11.5,19-11,11.55,11,11.55,11c0,0,5.95,19.5,8.45,26s11.5,12.5,18,28,4.5,25.5,7,32,13,13,13,13c0,0,12.5,4.5,19,11s15.5,10.5,18,16,9.5,9.5,12,14,5,23,5,23c0,0,4.5,22.5,4,29s-6.5,13.5-6,17,4.43,12.35,4.43,12.35H0V0Z"/>
    </g>
  </g>
</svg>