<?xml version="1.0" encoding="UTF-8"?>
<svg id="Layer_2" data-name="Layer 2" xmlns="http://www.w3.org/2000/svg" viewBox="0 0 100.9 180.92">
  <defs>
    <style>
      .cls-1 {
        fill: #0b7c05;
      }

      .cls-1, .cls-2, .cls-3, .cls-4, .cls-5, .cls-6, .cls-7, .cls-8, .cls-9, .cls-10, .cls-11, .cls-12, .cls-13 {
        stroke-width: 0px;
      }

      .cls-2 {
        fill: #036000;
      }

      .cls-3 {
        fill: #1d8217;
      }

      .cls-4 {
        fill: #038100;
      }

      .cls-5 {
        fill: #034c00;
      }

      .cls-6 {
        fill: #128c0c;
      }

      .cls-7 {
        fill: #2a6325;
      }

      .cls-8 {
        fill: #378e32;
      }

      .cls-9 {
        fill: #178911;
      }

      .cls-10 {
        fill: #2e8c29;
      }

      .cls-11 {
        fill: #127c0d;
      }

      .cls-14 {
        fill: none;
        stroke: #036000;
        stroke-miterlimit: 10;
        stroke-width: 2px;
      }

      .cls-12 {
        fill: #11750c;
      }

      .cls-13 {
        fill: #0d6d08;
      }
    </style>
  </defs>
  <g id="Layer_1-2" data-name="Layer 1">
    <g id="Pflanze2">
      <path class="cls-2" d="m52.59,59.92c3,0,9,42,4,42s-7-42-4-42Z"/>
      <path class="cls-14" d="m53.09,56.92c15.34,43.4,29.24,84.85,41.23,123.71"/>
      <path class="cls-4" d="m51.7,58.15c2.87.86-3.4,42.82-8.19,41.39s5.32-42.25,8.19-41.39Z"/>
      <path class="cls-2" d="m49.61,56.7c2.58,1.53-13.67,40.72-17.97,38.17s15.39-39.7,17.97-38.17Z"/>
      <path class="cls-2" d="m48.18,57.54c2.11,2.13-23.52,35.94-27.03,32.39s24.92-34.52,27.03-32.39Z"/>
      <path class="cls-13" d="m46.41,56.19c1.39,2.66-33.05,27.44-35.36,23.01s33.97-25.67,35.36-23.01Z"/>
      <path class="cls-11" d="m44.66,54.59c.73,2.91-38.52,19.01-39.74,14.16s39.01-17.07,39.74-14.16Z"/>
      <path class="cls-2" d="m41.66,52.33C41.85,55.32.32,63.99,0,59s41.47-9.67,41.66-6.67Z"/>
      <path class="cls-2" d="m42.69,53.35c-.8,2.89-42.88-2.55-41.54-7.37s42.34,4.48,41.54,7.37Z"/>
      <path class="cls-9" d="m44.83,46.75c-1.27,2.72-41.87-9.6-39.75-14.13s41.02,11.41,39.75,14.13Z"/>
      <path class="cls-2" d="m45.64,41.55c-1.65,2.51-40.05-15.52-37.31-19.7,2.74-4.18,38.96,17.19,37.31,19.7Z"/>
      <path class="cls-2" d="m45.26,44.23c-2.51,1.65-30.58-30.16-26.4-32.91,4.18-2.74,28.91,31.26,26.4,32.91Z"/>
      <path class="cls-10" d="m47.04,43.93c-2.83,1.01-22.61-36.52-17.9-38.21,4.71-1.68,20.72,37.2,17.9,38.21Z"/>
      <path class="cls-2" d="m51.3,42.56c-2.98.32-13.37-40.82-8.4-41.35,4.97-.53,11.38,41.03,8.4,41.35Z"/>
      <path class="cls-6" d="m52.64,41.92c-2.93-.63.02-42.95,4.91-41.9,4.89,1.05-1.97,42.53-4.91,41.9Z"/>
      <path class="cls-2" d="m56.24,43.28c-2.79-1.1,7.03-42.37,11.69-40.54,4.65,1.83-8.9,41.64-11.69,40.54Z"/>
      <path class="cls-1" d="m59.2,44.16c-2.42-1.78,17.67-39.15,21.7-36.18,4.03,2.97-19.28,37.96-21.7,36.18Z"/>
      <path class="cls-2" d="m61.25,48.08c-2.08-2.17,24.09-35.56,27.55-31.95,3.46,3.61-25.48,34.12-27.55,31.95Z"/>
      <path class="cls-7" d="m60.57,48.5c-1.22-2.74,34.73-25.27,36.76-20.7,2.03,4.57-35.54,23.45-36.76,20.7Z"/>
      <path class="cls-2" d="m58.04,47.55c-.2-2.99,41.32-11.75,41.65-6.76.33,4.99-41.45,9.75-41.65,6.76Z"/>
      <path class="cls-3" d="m58.73,51.35c.4-2.97,42.82-3.32,42.16,1.63-.67,4.96-42.56,1.34-42.16-1.63Z"/>
      <path class="cls-2" d="m56.43,53.51c1.07-2.8,42.44,6.61,40.65,11.28-1.79,4.67-41.73-8.48-40.65-11.28Z"/>
      <path class="cls-12" d="m55.86,55.66c1.59-2.54,40.36,14.71,37.7,18.94-2.66,4.23-39.29-16.4-37.7-18.94Z"/>
      <path class="cls-2" d="m53,57.18c2.05-2.19,37.37,22.58,33.96,26.24-3.41,3.65-36-24.04-33.96-26.24Z"/>
      <path class="cls-8" d="m54.57,59.47c2.51-1.64,30.93,30.82,26.74,33.56-4.18,2.74-29.25-31.92-26.74-33.56Z"/>
      <ellipse class="cls-5" cx="51.59" cy="52.42" rx="22" ry="19.5"/>
    </g>
  </g>
</svg>