<?xml version="1.0" encoding="UTF-8"?>
<svg id="Layer_2" data-name="Layer 2" xmlns="http://www.w3.org/2000/svg" viewBox="0 0 439.23 152.34">
  <defs>
    <style>
      .cls-1 {
        fill: #afafaf;
        stroke-width: 0px;
      }
    </style>
  </defs>
  <g id="Layer_1-2" data-name="Layer 1">
    <path class="cls-1" d="m140.17,3.41c4.28-.91,4.26.64,11,0,10.07-.95,12.37-4.62,17-3,4.95,1.73,3.47,6.31,9,10,4.84,3.23,7.42.69,22,2,10.14.91,11.44,2.37,16,1,6.92-2.08,8.36-6.78,12-6,4.63.99,3.75,8.93,10,16,4.2,4.74,9.09,6.25,18,9,14.54,4.48,16.72.9,29,5,11.62,3.88,11.44,7.68,21,9,8.57,1.18,11.19-1.53,19,0,8.96,1.76,14.47,7.09,18,10,17.72,14.6,33.05,7.18,62,20,3.5,1.55,36.77,16.28,35,28-2.06,13.6-50.43,16.83-68,18-72.8,4.85-83.81-14-134-6-38.12,6.07-33.88,17.28-91,29-7.09,1.45.93-.38-82,6-17.97,1.38-33.27,2.62-42-7-5.72-6.3-3.21-11.31-11-30C3.78,96.67-.96,95.23.17,88.41c1.79-10.82,15.37-17.19,32-25,16.36-7.68,18.86-3.37,28-10,10.16-7.38,9.23-13.31,23-24,5.25-4.08,9.83-7.63,17-10,11.46-3.79,14.62.37,23-4,8.3-4.33,8.69-10.23,17-12Z"/>
  </g>
</svg>