<?xml version="1.0" encoding="UTF-8"?>
<svg id="Layer_2" data-name="Layer 2" xmlns="http://www.w3.org/2000/svg" viewBox="0 0 482.83 224.14">
  <defs>
    <style>
      .cls-1 {
        fill: #7f7f7f;
        stroke-width: 0px;
      }
    </style>
  </defs>
  <g id="Layer_1-2" data-name="Layer 1">
    <path class="cls-1" d="m139.18,21.13c20.16-9.18,30.37-13.77,37-14,7.2-.25,5.66,1.38,25,3,16.96,1.42,21.31.43,23,0,11.71-2.99,12.19-8.95,21-10,9.9-1.18,12.51,5.95,26,10,16.72,5.02,19.78-3.82,37,0,17.58,3.9,17.82,13.88,35,16,12.81,1.58,14.67-3.72,26-1,13.4,3.22,12.92,11.15,27,16,14.11,4.86,17.75-2.01,32,3,8.3,2.92,13.87,7.94,25,18,7.43,6.72,13.38,12.08,19,21,6.14,9.73,12.79,20.27,10,27-5,12.07-85-52.44-94,3-41.53,255.92-45-13-115,3s-38.33,22.95-79,30c-50.08,8.68-54.74-11.35-118-4-17.68,2.05-34.79,5.65-52-4C12.21,131.42-1.73,117.24.18,103.13c2.49-18.38,30.67-27.85,46-33,12.76-4.29,17.25-3.53,37-8,27.2-6.15,43.15-6.99,44-13,.7-4.97-9.49-7.71-9-14,.32-4.09,4.9-6.67,21-14Z"/>
  </g>
</svg>