<?xml version="1.0" encoding="UTF-8"?>
<svg id="Layer_2" data-name="Layer 2" xmlns="http://www.w3.org/2000/svg" viewBox="0 0 111.13 47">
  <defs>
    <style>
      .cls-1 {
        fill: #5b2d07;
      }

      .cls-1, .cls-2, .cls-3, .cls-4, .cls-5, .cls-6, .cls-7, .cls-8, .cls-9, .cls-10, .cls-11, .cls-12 {
        stroke-width: 0px;
      }

      .cls-2 {
        fill: #684116;
      }

      .cls-3 {
        fill: #eab28c;
      }

      .cls-4 {
        fill: #c4c090;
      }

      .cls-5 {
        fill: #cec44e;
      }

      .cls-13 {
        fill: none;
        stroke: #663b10;
        stroke-miterlimit: 10;
        stroke-width: .5px;
      }

      .cls-6 {
        fill: #543222;
      }

      .cls-7 {
        fill: #f4ba92;
      }

      .cls-8 {
        fill: #9ec416;
      }

      .cls-9 {
        fill: #fcbf95;
      }

      .cls-10 {
        fill: #f9c185;
      }

      .cls-11 {
        fill: #663b10;
      }

      .cls-12 {
        fill: #f2b58c;
      }
    </style>
  </defs>
  <g id="Layer_1-2" data-name="Layer 1">
    <g id="typ">
      <g id="pinsel">
        <path class="cls-5" d="m6.73,36.79l5.21-6.06s1.56-.73,1.56,1.27-6,7-6,7l-.77-2.21Z"/>
        <path class="cls-2" d="m0,41.28l6.49-3.28,1.38.67-.88,7.76-.5-1.44-2,2v-3s-2,3-2,2,1-3,1-3l-3.23,1.07,2.34-2.79H0Z"/>
      </g>
      <polygon class="cls-9" points="34.41 24.39 32.04 34.44 23.74 36.2 13.65 35.2 12.13 37.67 12.14 39.38 15.68 39.74 21.01 40.39 33.98 39.52 35.98 39.39 38.64 34.2 40.23 28.08 41.03 25.02 34.41 24.39"/>
      <polygon class="cls-12" points="28.93 24.92 25.89 34.8 17.49 36 7.49 34.33 5.81 36.69 5.71 38.4 9.22 39 14.49 40 27.49 40 29.49 40 32.49 35 34.49 29 35.49 26 28.93 24.92"/>
      <path class="cls-1" d="m91.49,33l-17.67-.12c-.04-10.57-4.62-16-12.33-17.88,0,0-3.5,16.5-4.5,17.5s0-1-1.5-.5c0,0-.02.01-.03.01.34.67.53,1.41.5,2.19-.03.92-.27,1.85-.24,2.77.02-.33.08-.2.19.39.11.6.18,1.19.21,1.8.03.59-.01.66-.14.21.04.23.07.47.1.71.58.39,1.08.9,1.46,1.56.06.1.1.22.15.33l6.69-.26,2.1,2.31c6.83.92,15.93-.53,26-3,1.08-3.01,1.08-5.76-1-8Z"/>
      <path class="cls-6" d="m58.49,30l4,4c.44,2.85,1.15,6.11,1,8h-5.94c-1.62.04-2.83-.41-3.06-2-.36-.6.63-3.8,0-8l2,1c.29-1.39.91-2.44,2-3Z"/>
      <path class="cls-8" d="m28.49,12c1-1,7-.96,8.5-.98s24.5,3.98,24.5,3.98c.03,7.2-1.58,13.23-5,18,0,0-18-6-19-6s-2,1-2,1c-2.65-.27-5-1.24-7-3.08v-3.92l-.83-1.41s-.17-6.59.83-7.59Z"/>
      <path class="cls-10" d="m28.99,13.5c-1.61-.6-2.8-1.42-3.51-2.48l-.16.58-.08.31-1.25,4.59c1.35.67,2.68,1.73,4,3l1-6Z"/>
      <path class="cls-3" d="m24.8,10.29c-.11-.17-.19-.34-.27-.51-.39-.73-.6-1.52-.6-2.36.06-.44.12-.89.18-1.33.03-.12.08-.21.12-.33l-1.53-.77-6.33,1.27s-3.8,1.27-3.8,2.53-5.07,2.53-5.07,2.53l1.27,3.8s4.8,3.22,5.07,3.8c.27.58-.27,1.99,0,2.53.27.54,2.6-.67,3.8,0,1.2.67,1.75,2.41,2.53,2.53.78.13,3.8-3.8,3.8-3.8l1.93-8.67c-.44-.33-.82-.73-1.09-1.24Z"/>
      <path class="cls-4" d="m5.71,4.26l1.28,5.91c-2.99,1.61-4.07,3.67-3.05,6.22,5.63-.83,10.89-1.8,14.55-3.39,3.87-1.41,7.77-4.48,11.69-8.74-2.56-.67-5.07-1.02-7.33,0l-3.37-4.26c-4.8.47-9.41,1.8-13.78,4.26Z"/>
      <g>
        <ellipse class="cls-13" cx="12.99" cy="18" rx="1" ry="2.5" transform="translate(-8.92 14.46) rotate(-45)"/>
        <line class="cls-13" x1="15.99" y1="15.5" x2="13.99" y2="17.5"/>
      </g>
      <polygon class="cls-11" points="20.33 12.21 24.59 14.32 25.48 11.02 24.59 9.49 20.33 12.21"/>
      <path class="cls-11" d="m99.99,32.5l1,5c1.16.1,2.2.37,3,1,1.33,1.93,3.03,3.57,5,5,.69.27,1.35.24,2,0,.15-.75.2-1.45,0-2-1.25-4.12-3.32-8.07-6.12-11.86-.59-.13-1.21-.18-1.88-.14-.52.54-.81,1.24-1,2-.42.4-1.17.71-2,1Z"/>
      <polygon class="cls-7" points="91.95 33.54 99.99 32.82 100.73 36.17 92.86 39.82 91.95 33.54"/>
    </g>
  </g>
</svg>