<?xml version="1.0" encoding="UTF-8"?>
<svg id="Layer_2" data-name="Layer 2" xmlns="http://www.w3.org/2000/svg" viewBox="0 0 83.14 36">
  <defs>
    <style>
      .cls-1 {
        fill: #d1d1d1;
        stroke-width: 0px;
      }
    </style>
  </defs>
  <g id="Layer_1-2" data-name="Layer 1">
    <g>
      <path class="cls-1" d="m.27,14.61c1-.75,8-5.27,10-6.02s11-3.01,13-3.76,6-3.01,8-3.76,6-1.51,8-.75,7,2.26,8,3.01,2,2.26,1.5,3.39c-5.5,5.65,4.5,10.16,6,12.04-2.5,1.13-3.5.38-5,2.26s-4.83,5.8-5.67,6.85c-.83,1.05-8.15,1.49-10.49,2.4s-12.34,4.67-15.34,5.42-6,0-7-.75-1.98-3.18-.49-3.47,6.49-.29,7.49-1.04c6,0,9-1.51,11-3.01s1.01-4.89,3.51-6.21,5.49-4.33,5.49-4.33c0,0-9-1.51-12-.75-3,.75-6,3.76-8,3.76s-8.15,1.13-9.57,1.32-5.43.19-6.43-.56S-.73,15.37.27,14.61Zm30.5-4.89c.56,1.18,1.5,1.89,2,2.26,1.1.81,3.21,1.94,4,1.51.51-.28.29-1.12,0-2.26-.46-1.79-1.12-2.01-1-3.01.14-1.18,1.1-1.32,1-2.26-.11-1.06-1.48-2.28-3-2.26-1.76.02-2.69,1.69-3,2.26-.95,1.7-.22,3.3,0,3.76Zm-12,3.01c.29.72.81,2.03,2,2.26,1.15.22,1.62-.84,4-1.51,2.29-.64,3.42-.1,4-.75.68-.77-.85-1.57-1-3.76-.11-1.69.72-2.48,0-3.01-.68-.51-2.13-.31-3,0-.94.34-1.04.75-2,1.51-1.96,1.55-3.19,1.12-4,2.26-.77,1.08-.27,2.33,0,3.01Zm-2,1.51c.43-.51-.29-2-2-2.26s-3.14.91-3,1.51c.21.92,4.33,1.54,5,.75Zm-15,3.01c.48.32,1.44.34,2,0,1.07-.66-.15-2.17,1-3.01.6-.44,1.15-.19,2-.75.69-.46,1.27-1.26,1-1.51-.52-.48-4.77.65-6,3.01-.09.17-.88,1.68,0,2.26Z"/>
      <path class="cls-1" d="m53.77,8.97l1,3.76h-4l-1-3.01.83-1.08.17-1.18,1.5-.54.92.98s.04.41-.19.73.77.33.77.33Z"/>
      <path class="cls-1" d="m59.12,10.3l-1.29,3.71-3.59-1.32.86-3.04,1.38-.7.84-1h1.66s.26,1.2.26,1.2c0,0-.2.38-.6.6s.5.55.5.55Z"/>
      <path class="cls-1" d="m64.15,12.19l-1.72,3.61-3.43-1.55,1.21-2.97,1.45-.6.95-.94,1.65.12.12,1.2s-.24.36-.67.56.43.58.43.58Z"/>
      <path class="cls-1" d="m69.12,15.62l-3.06,3.07-2.67-2.24,2.31-2.57,1.62-.25,1.28-.69,1.53.48-.36,1.17s-.37.29-.85.38.19.65.19.65Z"/>
      <path class="cls-1" d="m73.15,18.24l-1.81,3.59-3.39-1.6,1.28-2.95,1.47-.58.97-.93,1.65.14.09,1.2s-.25.36-.68.55.42.58.42.58Z"/>
      <path class="cls-1" d="m78.1,19.53l-1.08,3.75-3.67-1.2.68-3.06,1.33-.74.78-1.03,1.66-.04.32,1.18s-.18.39-.56.62.53.53.53.53Z"/>
      <path class="cls-1" d="m78.36,22.83l.68-3.06,1.33-.74.78-1.03,1.66-.04.32,1.18s-.18.39-.56.62.53.53.53.53"/>
    </g>
  </g>
</svg>