<?xml version="1.0" encoding="UTF-8"?>
<svg id="Layer_2" data-name="Layer 2" xmlns="http://www.w3.org/2000/svg" viewBox="0 0 163.11 203.35">
  <defs>
    <style>
      .cls-1 {
        fill: #3f3f3f;
        stroke-width: 0px;
      }
    </style>
  </defs>
  <g id="Layer_1-2" data-name="Layer 1">
    <path class="cls-1" d="m163.11,0s-25,1-21,1-18,2-23,6-11,6-15,10-2,13-3,16-5,15-7,20-1,20-4,26-16,11-20,14-15,0-19,3-11,16-13,21-10,25-9,29,7,8,7,12-7,16-11,19-16,10-20,14-5.11,12.35-5.11,12.35h163.11V0Z"/>
  </g>
</svg>