<?xml version="1.0" encoding="UTF-8"?>
<svg id="Layer_2" data-name="Layer 2" xmlns="http://www.w3.org/2000/svg" viewBox="0 0 139.03 137.12">
  <defs>
    <style>
      .cls-1 {
        fill: #592626;
      }

      .cls-1, .cls-2 {
        stroke-width: 0px;
      }

      .cls-2 {
        fill: #119614;
      }
    </style>
  </defs>
  <g id="Layer_1-2" data-name="Layer 1">
    <g id="baum">
      <path class="cls-1" d="m51,135.06s12-14.12,14-16.14,6-9.08,7-12.1-4-12.1-6-16.14-3-7.06-2-12.1c-4-2.02-16-4.03-16-4.03,0,0-14,0-16-1.01s-6-11.09-6-11.09l-4-9.08,2-2.02,1,1.01s3.08,11.19,4.04,12.65,5.96,4.49,5.96,4.49l11,1.01,9,2.02,7,1.01,1-6.05v-7.06c0-2.02,3-5.04,3-5.04,0,0-7-2.02-8-2.02s-5,1.01-7-1.01-4-10.28-4-10.28l-3-7.88,1-3.03,4,10.08s3,6.05,4,7.06,9,2.02,9,2.02l4,1.01,5-10.08,4-7.06,4-7.06,1-6.05v-3.85h3.33l-2.65,7.89-3.67,12.1-5,8.07-2,8.07,1,4.03,7-2.02,9-1.01,7-1.01,3-3.03v-6.92l2,2.89-2,6.05-4,3.03-8,1.01s-5,0-6,1.01-3,3.03-5,3.03h-3l-2,4.03-1,6.05v8.07l2,2.02,5.94-4.45,9.06-4.63,10-2.02,8-7.06,4-4.03,4,1.01-6.26,3.87-3.74,4.19-5,4.03-8,2.02-2.97,2.61-6.03,4.45s-3,1.01-4,3.03,0,4.03,0,4.03c0,0,5,6.05,6,8.07s3,7.06,3,9.08-2,12.1-3,14.12-2.2,4.03-2.6,5.55-1.4,7.56-.4,8.57l3,3.03c-9.82,1.45-19.99,1.36-30.45,0l.45-1.01Z"/>
      <path class="cls-2" d="m0,48.07c0,2,1,3,4,4s11.65,0,13.33,0,8.75,2.49,11.71,1.75c2.96-.75,8.96-1.75,8.96-3.75s-1-3-5-4-3,0-9-1-7-4-9-4-3,0-6,1S0,46.07,0,48.07Z"/>
      <path class="cls-2" d="m36,34.07c5.12,1.08,7.16-1.97,12-2,5.43-.03,5.35,3.78,11,4,4.46.18,4.83-2.18,13-4,5.14-1.14,7.71-.81,8-2,.36-1.49-3.13-4.37-7-5-4.2-.68-5.45,1.83-9,1-4.02-.93-3.68-4.43-8-6-2.06-.75-5.04-.17-11,1-3.05.6-5.37,1.4-10,3-3.31,1.15-4.58,1.74-5,3-.75,2.27,1.88,4.89,2,5,1.19,1.15,2.61,1.71,4,2Z"/>
      <path class="cls-2" d="m50,13.07c1.16,2.75,4.66,3.67,6,4,6.23,1.55,7.76-1.85,14-1,.8.11,4.2,1.41,11,4,4.46,1.7,5.36,2.11,7,2,4.21-.29,4.38-3.42,9-5,5.28-1.81,7.69,1.36,14-1,1.05-.39,4-1.5,4-3s-2.9-2.58-4-3c-5.81-2.2-8.03.21-14-1-4.61-.93-8.54-3.43-11-5-3.72-2.37-4.48-3.67-7-4-3.12-.41-5.71,1.1-9,3-5.28,3.06-5.04,4.83-9,6-2.43.72-4.4,1.3-7,1-1.82-.21-3.27-.77-4,0-.86.9-.05,2.89,0,3Z"/>
      <path class="cls-2" d="m80,43.07c4.94.1,6.01-1.11,10-1,2.66.07,4.88.68,6,1,3.43.97,3.88,1.82,6,2,2.64.22,3.65-.95,7-2,2.64-.83,5.09-.89,10-1,7.69-.18,10.23.93,12-1,1.3-1.42,1.37-3.59,1-5-.79-3.03-4.04-4.37-8-6-3.31-1.37-5.3-2.19-8-2-4.85.34-5.25,3.48-10,4-3.38.37-3.3-1.21-10-2-2.1-.25-5.15-.59-9,0-2.27.35-4.49.63-7,2-1.82.99-4.28,2.33-5,5-.4,1.47-.36,3.71,1,5,.68.64,1.59.95,4,1Z"/>
      <path class="cls-2" d="m99,57.07c5.46-.58,6.39,2.41,13,3,3.88.35,2.83-.75,10-1,5-.18,7.68.28,12-1,2.25-.67,4.72-1.43,5-3,.34-1.92-2.76-4.1-5-5-3.77-1.52-7.54-.42-9,0-3.12.91-2.92,1.8-5,2-3.43.33-4.08-2.11-9-3-2.77-.5-5.25-.21-7,0-1.59.19-2.73.46-5,1-3.25.78-2.88.93-7,2-1.7.44-2.2.53-3,1-1.64.96-3.44,2.88-3,4,.48,1.22,3.46,1.1,6,1,3.6-.14,4.82-.77,7-1Z"/>
    </g>
  </g>
</svg>