<?xml version="1.0" encoding="UTF-8"?>
<svg id="Layer_2" data-name="Layer 2" xmlns="http://www.w3.org/2000/svg" viewBox="0 0 1022.5 511.03">
  <defs>
    <style>
      .cls-1, .cls-2, .cls-3, .cls-4, .cls-5 {
        stroke-width: 0px;
      }

      .cls-2 {
        fill: #c92600;
      }

      .cls-6 {
        stroke: #fff;
        stroke-miterlimit: 10;
      }

      .cls-6, .cls-4 {
        fill: #eaeaea;
      }

      .cls-3 {
        fill: #911f00;
      }

      .cls-5 {
        fill: #72210c;
      }
    </style>
  </defs>
  <g id="Layer_1-2" data-name="Layer 1">
    <g id="T-Rex">
      <path id="Zähne_oben" data-name="Zähne oben" class="cls-6" d="m7.5,62.5c-1.07.12-2.64-2.19-5-10,56.74.93,70.11,6.64,71,12,.34,2.06-.69,6.88-2,7-1.53.14-3.04-6.2-4-6-1.1.23.25,8.68-1,9-1.36.35-4.3-9.33-6-9-1.88.37-.38,12.69-2,13-1.79.34-5.44-14.29-7-14-1.82.34,1.15,20.54-1,21-1.99.42-6.7-16.49-9-16-1.69.36-.55,9.74-2,10-2.02.36-6.34-17.33-8-17-1.33.26.2,11.79-1,12-1.36.24-4.63-14.24-6-14-1.36.23.49,14.72-1,15-1.67.31-5.83-17.37-8-17-1.31.23-1.14,6.97-2,7-.93.03-1.55-7.96-3-8-1.13-.03-1.51,4.83-3,5Z"/>
      <path class="cls-5" d="m858.5,217.5s-89-32-146-52c-37-10-108-25-120-34-14-9-71-33-101.5-30.5-6,0-49,3-61,3s-52.5-13.5-68-12c-25.5,2.5-83-5-98-19-12-2-47-54-65-60-12-10-48-4-48-4,0,0-16-9-24-9s-22,11-26,11-15,1-25-2c-6-1-4-5-23-4C-.86,7.83,0,51,0,51c14.5,13.5,54.5,11.5,75.5,14.5s24,27,22,33c-6-2-26,30-32,40s-37,21-39,22,7,7,13,13,12,5,22,4c12,1,38-18,41-19s14-1,23-3c4,0,20-7,27-8s8,0,19,2c5,8,36,25,42,30,4,5,49,15,51,23-2,7,13,35,13,35,0,0,12,29,7,26s-43,12-43,12c0,0-2,8-7,21s1,17,1,17l5.01.84c.4-.26.85-.46,1.36-.58l1.63-3.25.61.35c.8-.79,1.92-1.3,3.37-1.3,1.08,0,1.98.29,2.7.76.35.2.67.43.94.71.57.28,1.05.65,1.43,1.11.13,0,.26-.02.4-.02.59,0,1.12.09,1.6.24.37-.57.22-1.21-1.05-1.84-4-2-7-10-6-20-1-9,7-16,10-15s32,1,35-2,5-15,5-15c0,0,17,23,16,24s-11,5-13,6-22,16-23,19,0,4,3,15,6,16,14,17,14-12,8.09-13.5-6.09-3.5-10.09-5.5-7-10-5-14c3-1,34-12,36-17s-1-21,2-20,24,8,24,9,52,18,58,18,19,12,15,26c-4,5-9,38-6,48-1,4,26,38,26,38,0,0,13,20,13,24s-1,15-6,21c0,5-12,21-20,25-2,4-21,8-28,7-4,0-14,6-16,13s2,12,4.44,12.15c2.44.15,39.56.85,53.56-.15,11,1,17-3,19-9,1.1-1.8,3-16,8-28,0,0,8-12,12-17s8-15,3-22c-2.91-4.07-10-17-8-22,0-7,0-9,1-15s0-18-4-24c-1-3-12-10-10.5-10.04s5.5-3.96,13.5-3.96c-1,4,8,18,8,18l13,10s30,18,32,18,19,16,19,16v25c0,4-5,18-11,23-1,3-17,11-23,12-3,1-5,6-6,10s5,10,9,11c2,1,15-1,21,0s5,5,12,4c9-4,21-26,23-35,3-7,2-32,2-32l9,9-5-18s0-11-4-19-11-2-19-19c-1-32-27-39-27-39,0,0-4-3-1-4,28-24,45-59,64-67,6-3,45-5,52-6s22-8,30-13,23,0,44-5,98,7,98,7c0,0,94,18,107,20s56,16,98,23c-19-20-164-91-164-91Z"/>
      <g id="Fuß_rechts" data-name="Fuß rechts">
        <path class="cls-1" d="m518,481c-18,1-22,19-22,19,0,0,9-7,9-5l-3,9s6-6,8-7c5,0,13-1,13-1,0,0,0-7-5-15Z"/>
        <path class="cls-1" d="m539,509s8-20,13-15-13,15-13,15Z"/>
      </g>
      <path id="Fuß_links" data-name="Fuß links" class="cls-1" d="m395,488c-20,2-24,19-24,19,0,0,8-6,9-5-1,2-2,9-2,9,0,0,4-5,7-5h12s2-13-2-18Z"/>
      <g id="Arm_rehcts" data-name="Arm rehcts">
        <path class="cls-1" d="m298,339s17-4,17-5-11,0-11,0l-6,5Z"/>
        <path class="cls-1" d="m302.87,335.38c8.13-2.38,12.13-14.38,12.13-14.38l-11.71,7.19s-1.29,5.81-.43,7.19Z"/>
      </g>
      <g id="Arm_links" data-name="Arm links">
        <path class="cls-1" d="m235,313c0,3,12,11,12,11l-6-10s-1,0-6-1Z"/>
        <path class="cls-1" d="m243.97,310.73s14.03,3.27,15.03,2.27c-2-1-9-6-9-6l-6.03,3.73Z"/>
      </g>
      <g id="Auge">
        <path id="Auge-2" data-name="Auge" class="cls-3" d="m128.5,16.5s20,8,20,18-17,14-27,13-19-12-18-13,4-12,10-14,6-4,15-4Z"/>
        <circle id="Iris" class="cls-1" cx="127" cy="33" r="5.5"/>
      </g>
      <path id="Zähne_unten" data-name="Zähne unten" class="cls-4" d="m36,157l1-7,2,2,3-5,2,3,2-4s0,3,1,3,2-4,2-4c0,0,2,0,2,1s0-4.64,0-4.64l4,3.64v-8.38l4,5.38,1-10s6,7,6.5,7.5,2.5-5.5,2.5-5.5l4,3v-5.97l4,1.97,2-8,3,3c-1,20-46,29-46,29Z"/>
      <path id="Mund" class="cls-2" d="m75.5,65.5c33,10,20,52,16,54,14-8,36-12,41-11,21-3,34-38,28-43-23,5-31,27-61.31,0-2.69,0-13.69-2-23.69,0Z"/>
      <path id="Nase" class="cls-1" d="m25.5,29.5s-8,2-9,9"/>
    </g>
  </g>
</svg>